<svg width="206" height="126" viewBox="0 0 206 126" fill="none" xmlns="http://www.w3.org/2000/svg">
<path d="M103.814 98.2725H0V100.826H103.814V98.2725Z" fill="#FA5738"/>
<path d="M103.814 123.446H0V126H103.814V123.446Z" fill="#FA5738"/>
<path d="M184.822 126H91.5901V98.2725H184.822C186.282 98.2725 187.377 99.367 187.377 100.826V123.264C187.377 124.905 186.282 126 184.822 126Z" fill="#FA5738"/>
<path d="M95.239 123.446H8.39258L8.75749 120.528C9.48729 114.873 9.48729 109.4 8.75749 103.745L8.39258 100.826H95.239C98.3407 100.826 100.713 103.198 100.713 106.299V117.974C100.713 121.075 98.3407 123.446 95.239 123.446Z" fill="#F9F8F7"/>
<path d="M100.713 107.029H9.12239L8.93994 105.204H100.53L100.713 106.116V107.029Z" fill="#EDE5DD"/>
<path d="M100.713 111.224H9.30493V113.048H100.713V111.224Z" fill="#EDE5DD"/>
<path d="M100.713 118.703H9.12256V116.879H100.713V118.703Z" fill="#EDE5DD"/>
<path d="M148.332 103.745H140.304L136.291 112.136L140.304 120.527H148.332L152.164 112.136L148.332 103.745Z" stroke="#F9F8F7" stroke-width="0.25" stroke-miterlimit="10"/>
<path d="M152.711 103.745H135.926V120.527H152.711V103.745Z" stroke="#F9F8F7" stroke-width="0.25" stroke-miterlimit="10"/>
<path d="M145.778 108.853H142.676L141.217 112.136L142.676 115.42H145.778L147.42 112.136L145.778 108.853Z" fill="#F9F8F7"/>
<path d="M118.41 103.745H110.383L106.369 112.136L110.383 120.527H118.41L122.242 112.136L118.41 103.745Z" stroke="#F9F8F7" stroke-width="0.25" stroke-miterlimit="10"/>
<path d="M122.789 103.745H106.004V120.527H122.789V103.745Z" stroke="#F9F8F7" stroke-width="0.25" stroke-miterlimit="10"/>
<path d="M115.856 108.853H112.754L111.295 112.136L112.754 115.42H115.856L117.498 112.136L115.856 108.853Z" fill="#F9F8F7"/>
<path d="M177.889 103.745H170.044L166.03 112.136L170.044 120.527H177.889L181.903 112.136L177.889 103.745Z" stroke="#F9F8F7" stroke-width="0.25" stroke-miterlimit="10"/>
<path d="M182.45 103.745H165.665V120.527H182.45V103.745Z" stroke="#F9F8F7" stroke-width="0.25" stroke-miterlimit="10"/>
<path d="M175.517 108.853H172.416L170.956 112.136L172.416 115.42H175.517L177.159 112.136L175.517 108.853Z" fill="#F9F8F7"/>
<path d="M130.27 103.927H128.445V120.71H130.27V103.927Z" fill="#F9F8F7"/>
<path d="M160.191 103.927H158.367V120.71H160.191V103.927Z" fill="#F9F8F7"/>
<path opacity="0.25" d="M100.713 109.765C100.713 109.765 100.895 120.345 48.3494 123.629H91.4077H95.4216C95.4216 123.629 100.53 123.629 100.53 117.426L100.713 109.765Z" fill="#A59A93"/>
<path opacity="0.4" d="M100.713 116.879C100.713 117.791 100.713 115.785 100.713 116.697C101.078 123.264 95.604 123.446 95.604 123.446H92.32H0V126H184.822C187.377 125.818 187.377 123.446 187.377 123.446V116.879H100.713Z" fill="#AD1905"/>
<path opacity="0.3" d="M187.377 109.765H100.713V116.879H187.377V109.765Z" fill="#C12110"/>
<path opacity="0.5" d="M173.328 105.387H150.704C150.157 105.387 149.792 105.022 149.792 104.475V103.198C149.792 102.651 150.157 102.286 150.704 102.286H173.328C173.875 102.286 174.24 102.651 174.24 103.198V104.475C174.24 105.022 173.875 105.387 173.328 105.387Z" fill="#FFCCC5"/>
<path d="M125.094 20H40V22.0933H125.094V20Z" fill="#FA5738"/>
<path d="M125.094 40.6342H40V42.7275H125.094V40.6342Z" fill="#FA5738"/>
<path d="M191.494 42.7275H115.074V20H191.494C192.69 20 193.588 20.8971 193.588 22.0933V40.4846C193.588 41.8303 192.69 42.7275 191.494 42.7275Z" fill="#FA5738"/>
<path d="M118.065 40.6342H46.8794L47.1785 38.2419C47.7767 33.6066 47.7767 29.121 47.1785 24.4857L46.8794 22.0934H118.065C120.607 22.0934 122.552 24.0372 122.552 26.5791V36.1485C122.552 38.6904 120.607 40.6342 118.065 40.6342Z" fill="#F9F8F7"/>
<path d="M122.551 27.1771H47.4774L47.3279 25.6819H122.402L122.551 26.4295V27.1771Z" fill="#EDE5DD"/>
<path d="M122.551 30.6161H47.627V32.1114H122.551V30.6161Z" fill="#EDE5DD"/>
<path d="M122.552 36.7466H47.4775V35.2513H122.552V36.7466Z" fill="#EDE5DD"/>
<path d="M161.584 24.4857H155.004L151.714 31.3638L155.004 38.2418H161.584L164.724 31.3638L161.584 24.4857Z" stroke="#F9F8F7" stroke-width="0.25" stroke-miterlimit="10"/>
<path d="M165.173 24.4857H151.415V38.2418H165.173V24.4857Z" stroke="#F9F8F7" stroke-width="0.25" stroke-miterlimit="10"/>
<path d="M159.49 28.6723H156.948L155.751 31.3637L156.948 34.0551H159.49L160.836 31.3637L159.49 28.6723Z" fill="#F9F8F7"/>
<path d="M137.058 24.4857H130.478L127.188 31.3638L130.478 38.2418H137.058L140.198 31.3638L137.058 24.4857Z" stroke="#F9F8F7" stroke-width="0.25" stroke-miterlimit="10"/>
<path d="M140.647 24.4857H126.888V38.2418H140.647V24.4857Z" stroke="#F9F8F7" stroke-width="0.25" stroke-miterlimit="10"/>
<path d="M134.964 28.6723H132.422L131.225 31.3637L132.422 34.0551H134.964L136.31 31.3637L134.964 28.6723Z" fill="#F9F8F7"/>
<path d="M185.811 24.4857H179.38L176.09 31.3638L179.38 38.2418H185.811L189.101 31.3638L185.811 24.4857Z" stroke="#F9F8F7" stroke-width="0.25" stroke-miterlimit="10"/>
<path d="M189.55 24.4857H175.791V38.2418H189.55V24.4857Z" stroke="#F9F8F7" stroke-width="0.25" stroke-miterlimit="10"/>
<path d="M183.867 28.6723H181.325L180.128 31.3637L181.325 34.0551H183.867L185.213 31.3637L183.867 28.6723Z" fill="#F9F8F7"/>
<path d="M146.778 24.6353H145.283V38.3913H146.778V24.6353Z" fill="#F9F8F7"/>
<path d="M171.305 24.6353H169.809V38.3913H171.305V24.6353Z" fill="#F9F8F7"/>
<path opacity="0.25" d="M122.551 29.4199C122.551 29.4199 122.701 38.0922 79.6306 40.7837H114.924H118.214C118.214 40.7837 122.402 40.7837 122.402 35.6999L122.551 29.4199Z" fill="#A59A93"/>
<path opacity="0.4" d="M122.552 35.2514C122.552 35.999 122.552 34.3542 122.552 35.1018C122.851 40.4847 118.364 40.6342 118.364 40.6342H115.672H40V42.7275H191.494C193.588 42.578 193.588 40.6342 193.588 40.6342V35.2514H122.552Z" fill="#AD1905"/>
<path opacity="0.3" d="M193.588 29.4199H122.552V35.2513H193.588V29.4199Z" fill="#C12110"/>
<path opacity="0.5" d="M182.072 25.8314H163.528C163.08 25.8314 162.781 25.5323 162.781 25.0838V24.0371C162.781 23.5885 163.08 23.2895 163.528 23.2895H182.072C182.521 23.2895 182.82 23.5885 182.82 24.0371V25.0838C182.82 25.5323 182.521 25.8314 182.072 25.8314Z" fill="#FFCCC5"/>
<path d="M101.221 73.6351L205.035 73.6351L205.035 71.0813L101.221 71.0813L101.221 73.6351Z" fill="#FA5738"/>
<path d="M101.221 98.863L205.035 98.863L205.035 96.3091L101.221 96.3091L101.221 98.863Z" fill="#FA5738"/>
<path d="M20.0694 98.8197H113.302V71.0923H20.0694C18.6098 71.0923 17.5151 72.1868 17.5151 73.6461V96.0835C17.5151 97.7252 18.6098 98.8197 20.0694 98.8197Z" fill="#FA5738"/>
<path d="M109.653 96.2659H196.499L196.134 93.3472C195.404 87.6923 195.404 82.2198 196.134 76.5648L196.499 73.6461H109.653C106.551 73.6461 104.179 76.0175 104.179 79.1186V90.7934C104.179 93.8945 106.734 96.2659 109.653 96.2659Z" fill="#F9F8F7"/>
<path d="M104.179 79.8483H195.769L195.952 78.0241H104.362L104.179 78.9362V79.8483Z" fill="#EDE5DD"/>
<path d="M195.587 84.0439H104.179V85.8681H195.587V84.0439Z" fill="#EDE5DD"/>
<path d="M104.362 91.523H195.952L195.769 89.6989H104.179L104.362 91.523Z" fill="#EDE5DD"/>
<path d="M83.0149 84.9559L95.0566 88.6043L99.9828 84.9559L95.0566 81.49L83.0149 84.9559Z" fill="#DB4633"/>
<path d="M83.0149 84.5911L94.8742 80.578L96.8811 74.7406H90.6778L83.0149 84.5911Z" fill="#DB4633"/>
<path d="M83.0149 85.3208L94.8742 89.334L96.8811 95.1714H90.6778L83.0149 85.3208Z" fill="#DB4633"/>
<path d="M65.4784 95.1876L78.4324 95.1876L78.4324 74.7568L65.4784 74.7568L65.4784 95.1876Z" fill="#DB4633"/>
<path d="M40.4305 95.1876L45.5391 95.1876L45.5391 74.7568L40.4305 74.7568L40.4305 95.1876Z" fill="#DB4633"/>
<path d="M114.031 84.5911H115.674H117.316H118.775V102.286L116.403 98.8197L114.031 102.286V84.5911Z" fill="#2B9C58"/>
<path opacity="0.25" d="M114.032 96.2659H113.302H109.288C109.288 96.2659 104.179 96.2659 104.179 90.0637V82.4022C104.179 82.4022 104.179 85.8681 114.032 89.5164" fill="#A59A93"/>
<path opacity="0.25" d="M118.775 90.9758C126.438 93.1648 138.297 95.1714 156.542 96.2659H118.775" fill="#A59A93"/>
<path opacity="0.4" d="M118.775 96.2659H204.892V98.8197H118.775" fill="#AD1905"/>
<path opacity="0.4" d="M114.031 98.8197H20.0694C17.5151 98.6373 17.5151 96.2659 17.5151 96.2659V89.6989H104.179C104.179 90.6109 104.179 88.6043 104.179 89.5164C103.814 96.0835 109.288 96.2659 109.288 96.2659H112.572H114.031" fill="#AD1905"/>
<path opacity="0.3" d="M17.5655 89.6975L104.229 89.6975L104.229 82.5832L17.5655 82.5832L17.5655 89.6975Z" fill="#C12110"/>
<path opacity="0.5" d="M31.5639 76.5647H54.1877C54.7351 76.5647 55.1 76.1999 55.1 75.6526V74.3757C55.1 73.8285 54.7351 73.4636 54.1877 73.4636H31.5639C31.0165 73.4636 30.6516 73.8285 30.6516 74.3757V75.6526C30.8341 76.1999 31.199 76.5647 31.5639 76.5647Z" fill="#FFCCC5"/>
<path d="M116.038 43H12.2241V45.5538H116.038V43Z" fill="#2B9C58"/>
<path d="M116.038 68.1736H12.2241V70.7275H116.038V68.1736Z" fill="#2B9C58"/>
<path d="M197.229 70.7275H103.997V43H197.229C198.689 43 199.783 44.0945 199.783 45.5538V67.9912C199.783 69.4505 198.689 70.7275 197.229 70.7275Z" fill="#2B9C58"/>
<path d="M107.646 68.1736H20.7993L21.1642 65.2549C21.894 59.6 21.894 54.1275 21.1642 48.4725L20.7993 45.5538H107.646C110.747 45.5538 113.119 47.9253 113.119 51.0264V62.7011C113.119 65.6198 110.565 68.1736 107.646 68.1736Z" fill="#F9F8F7"/>
<path d="M113.119 51.5736H21.5291L21.3467 49.7495H112.937L113.119 50.6615V51.5736Z" fill="#EDE5DD"/>
<path d="M113.119 55.9516H21.7114V57.7758H113.119V55.9516Z" fill="#EDE5DD"/>
<path d="M112.937 63.4307H21.3467L21.5291 61.6066H113.119L112.937 63.4307Z" fill="#EDE5DD"/>
<path d="M178.619 43H145.23V70.7275H178.619V43Z" fill="#27894A"/>
<path d="M190.843 43H184.275V70.7275H190.843V43Z" fill="#27894A"/>
<path d="M128.81 43H122.242V70.7275H128.81V43Z" fill="#27894A"/>
<path d="M131.729 43H131.182V70.7275H131.729V43Z" fill="#27894A"/>
<path opacity="0.25" d="M113.119 54.3099C113.119 54.3099 113.302 64.8901 60.7559 68.1736H103.814H107.828C107.828 68.1736 112.937 68.1736 112.937 61.9714L113.119 54.3099Z" fill="#97A393"/>
<path opacity="0.4" d="M113.119 61.6066C113.119 62.5187 113.119 60.5121 113.119 61.4242C113.484 67.9912 108.011 68.1736 108.011 68.1736H104.727H12.2241V70.7274H197.046C199.601 70.545 199.601 68.1736 199.601 68.1736V61.6066H113.119Z" fill="#086608"/>
<path opacity="0.2" d="M199.783 54.3099H113.119V61.4242H199.783V54.3099Z" fill="#086608"/>
<path opacity="0.29" d="M176.247 49.2022H153.623C153.076 49.2022 152.711 48.8374 152.711 48.2901V47.0132C152.711 46.466 153.076 46.1011 153.623 46.1011H176.247C176.794 46.1011 177.159 46.466 177.159 47.0132V48.2901C177.159 48.8374 176.794 49.2022 176.247 49.2022Z" fill="#54E287"/>
<path d="M101.862 0H28V1.817H101.862V0Z" fill="#2B9C58"/>
<path d="M101.862 17.9105H28V19.7275H101.862V17.9105Z" fill="#2B9C58"/>
<path d="M159.627 19.7275H93.2942V0H159.627C160.665 0 161.444 0.778713 161.444 1.817V17.7807C161.444 18.819 160.665 19.7275 159.627 19.7275Z" fill="#2B9C58"/>
<path d="M95.8904 17.9105H34.1011L34.3607 15.8339C34.8799 11.8105 34.8799 7.91696 34.3607 3.8936L34.1011 1.81702H95.8904C98.0971 1.81702 99.7846 3.50423 99.7846 5.7106V14.0169C99.7846 16.0935 97.9673 17.9105 95.8904 17.9105Z" fill="#F9F8F7"/>
<path d="M99.7846 6.09992H34.6203L34.4905 4.80206H99.6548L99.7846 5.45099V6.09992Z" fill="#EDE5DD"/>
<path d="M99.7845 9.21478H34.75V10.5126H99.7845V9.21478Z" fill="#EDE5DD"/>
<path d="M99.6548 14.536H34.4905L34.6203 13.2382H99.7846L99.6548 14.536Z" fill="#EDE5DD"/>
<path d="M146.386 0H122.631V19.7275H146.386V0Z" fill="#27894A"/>
<path d="M155.083 0H150.41V19.7275H155.083V0Z" fill="#27894A"/>
<path d="M110.948 0H106.275V19.7275H110.948V0Z" fill="#27894A"/>
<path d="M113.025 0H112.636V19.7275H113.025V0Z" fill="#27894A"/>
<path opacity="0.25" d="M99.7846 8.04669C99.7846 8.04669 99.9144 15.5743 62.5293 17.9104H93.1643H96.0201C96.0201 17.9104 99.6548 17.9104 99.6548 13.4977L99.7846 8.04669Z" fill="#97A393"/>
<path opacity="0.4" d="M99.7846 13.2381C99.7846 13.8871 99.7846 12.4594 99.7846 13.1084C100.044 17.7806 96.1499 17.9104 96.1499 17.9104H93.8134H28V19.7274H159.497C161.314 19.5976 161.314 17.9104 161.314 17.9104V13.2381H99.7846Z" fill="#086608"/>
<path opacity="0.2" d="M161.444 8.04669H99.7847V13.1083H161.444V8.04669Z" fill="#086608"/>
<path opacity="0.29" d="M144.699 4.41272H128.602C128.213 4.41272 127.953 4.15315 127.953 3.76379V2.85529C127.953 2.46593 128.213 2.20636 128.602 2.20636H144.699C145.088 2.20636 145.348 2.46593 145.348 2.85529V3.76379C145.348 4.15315 145.088 4.41272 144.699 4.41272Z" fill="#54E287"/>
</svg>
